<svg xmlns="http://www.w3.org/2000/svg" viewBox="-10 0 195 209">
<g transform="translate(0,246.6) scale(1,-1)">
<path fill="#ffffff" d="m 0,163.328 c 1.08984,1.25 2.36328,2.602 4.17969,2.473 5.32031,0.051 10.65621,0.168 15.97261,-0.078 2.6993,-0.078 4.5586,-2.45 4.9532,-4.961 5.2304,-21.27 10.3672,-42.571 15.5742,-63.8479 1.5273,-6.5703 3.3867,-13.0743 4.3828,-19.7578 1.0273,-6.004 1.2305,-12.0977 2.207,-18.1133 1.3438,8.5859 2.5469,17.2265 4.8633,25.6133 6.8086,25.3947 13.6133,50.7847 20.4297,76.1717 0.5313,2.895 3.2539,4.953 6.1484,4.953 5.9219,0.149 11.8555,0.047 17.7774,0.047 3.1758,0.149 6.5747,-1.707 7.3397,-4.961 5.086,-18.512 10.11,-37.058 15.176,-55.586 3.074,-11.9997 7.101,-23.7966 8.84,-36.1091 0.48,-3.3906 0.949,-6.7891 1.648,-10.1563 1.91,19.3438 6.887,38.1641 10.981,57.1054 3.379,15.07 6.683,30.156 10.101,45.227 0.504,3.027 3.707,4.55 6.528,4.465 4.789,0.027 9.586,0.164 14.367,-0.079 2.84,-0.082 4.472,-3.222 3.472,-5.754 -9.609,-35.457 -19.183,-70.937 -28.796,-106.3941 -0.516,-2.8437 -2.993,-5.0625 -5.895,-5.1093 -7.422,-0.2422 -14.859,-0.0586 -22.281,-0.0977 -2.66,-0.1641 -5.473,1.2617 -5.942,4.0625 -6.644,24.3828 -13.1559,48.8086 -19.7379,73.2106 -2.3828,8.489 -3.3477,17.289 -4.3477,26.02 -1.2226,-7.774 -1.8281,-15.676 -3.8984,-23.313 -6.7383,-25.125 -13.5157,-50.2613 -20.2696,-75.3902 -0.7617,-4.0704 -5.414,-4.8829 -8.875,-4.6172 -6.9023,0.125 -13.8046,-0.1602 -20.6992,0.125 -2.457,-0.0078 -4.3515,1.9062 -4.7929,4.2265 C 19.7188,88.0195 10.0625,123.352 0.367188,158.66 0.03125,160.203 0.0742188,161.777 0,163.328 v 0"/>
<g transform="translate(-86.16,103.40) scale(0.333)"><path fill="#ffffff" d="m 511.617,400.082 c 35.762,1.231 71.758,-4.148 105.488,-16.117 50.743,-17.813 96.094,-50.457 129.278,-92.742 14.597,-18.551 26.824,-38.942 36.406,-60.516 1.699,-3.59 3.008,-7.625 2.098,-11.625 -1.114,-6.715 -7,-12.266 -13.77,-12.937 -7.031,-1.028 -14.297,3.359 -16.804,9.984 -19.055,44.84 -51.575,83.789 -92.141,110.75 -25.078,16.758 -53.203,28.961 -82.586,35.793 -37.891,8.863 -77.785,8.863 -115.684,0.027 -54.113,-12.461 -103.66,-43.5 -138.605,-86.629 -14.817,-18.172 -27.051,-38.429 -36.274,-59.98 -1.996,-5.008 -6.582,-8.934 -11.933,-9.813 -5.16,-0.996 -10.777,0.786 -14.375,4.629 -4.242,4.25 -5.629,11.043 -3.442,16.621 25.383,60.012 72.383,110.426 130.168,140.434 37.637,19.699 79.739,30.687 122.176,32.121 v 0"/></g>
</g></svg>